<svg xmlns="http://www.w3.org/2000/svg" width="1000" height="620" viewBox="0 0 1000 620"><rect width="1000" height="620" fill="white"/><g font-family="Arial,sans-serif" fill="#243f50"><text x="500" y="36" text-anchor="middle" font-size="23">HSA2307 Exported Amplitude vs. Raw USB Trace</text><path d="M110.0 90V515" stroke="#dce5e9"/><text x="110.0" y="543" text-anchor="middle" font-size="17">20</text><path d="M525.0 90V515" stroke="#dce5e9"/><text x="525.0" y="543" text-anchor="middle" font-size="17">30</text><path d="M940.0 90V515" stroke="#dce5e9"/><text x="940.0" y="543" text-anchor="middle" font-size="17">40</text><path d="M110 515.0H940" stroke="#dce5e9"/><text x="96" y="521.0" text-anchor="end" font-size="17">-80</text><path d="M110 302.5H940" stroke="#dce5e9"/><text x="96" y="308.5" text-anchor="end" font-size="17">-70</text><path d="M110 90.0H940" stroke="#dce5e9"/><text x="96" y="96.0" text-anchor="end" font-size="17">-60</text><path d="M110 90V515H940" fill="none" stroke="#243f50"/><circle cx="477.46941920000006" cy="336.7125" r="3.2" fill="#247a91" fill-opacity=".65"/><circle cx="435.87760044999993" cy="357.9625" r="3.2" fill="#247a91" fill-opacity=".65"/><circle cx="415.0357817" cy="368.5875" r="3.2" fill="#247a91" fill-opacity=".65"/><circle cx="435.69396295" cy="358.17500000000007" r="3.2" fill="#247a91" fill-opacity=".65"/><circle cx="456.35214005000006" cy="347.55000000000007" r="3.2" fill="#247a91" fill-opacity=".65"/><circle cx="460.32880700000004" cy="345.42499999999995" r="3.2" fill="#247a91" fill-opacity=".65"/><circle cx="505.8706995" cy="322.26250000000016" r="3.2" fill="#247a91" fill-opacity=".65"/><circle cx="426.91258785" cy="362.63749999999993" r="3.2" fill="#247a91" fill-opacity=".65"/><circle cx="451.7044762000001" cy="349.8875000000001" r="3.2" fill="#247a91" fill-opacity=".65"/><circle cx="414.2463687" cy="369.01249999999993" r="3.2" fill="#247a91" fill-opacity=".65"/><circle cx="476.53713415000004" cy="337.13749999999993" r="3.2" fill="#247a91" fill-opacity=".65"/><circle cx="414.19365124999996" cy="369.01249999999993" r="3.2" fill="#247a91" fill-opacity=".65"/><circle cx="414.10016835" cy="369.225" r="3.2" fill="#247a91" fill-opacity=".65"/><circle cx="393.2566854500001" cy="379.85" r="3.2" fill="#247a91" fill-opacity=".65"/><circle cx="393.16320670000005" cy="379.85" r="3.2" fill="#247a91" fill-opacity=".65"/><circle cx="455.31893114999997" cy="347.975" r="3.2" fill="#247a91" fill-opacity=".65"/><circle cx="496.72465974999994" cy="326.9375000000001" r="3.2" fill="#247a91" fill-opacity=".65"/><circle cx="455.13038420000004" cy="348.1875000000001" r="3.2" fill="#247a91" fill-opacity=".65"/><circle cx="413.53611280000007" cy="369.4375000000001" r="3.2" fill="#247a91" fill-opacity=".65"/><circle cx="413.44175839999997" cy="369.4375000000001" r="3.2" fill="#247a91" fill-opacity=".65"/><circle cx="351.0982755" cy="401.3125000000001" r="3.2" fill="#247a91" fill-opacity=".65"/><circle cx="413.2547926000001" cy="369.6499999999999" r="3.2" fill="#247a91" fill-opacity=".65"/><circle cx="433.91131385000006" cy="359.0249999999999" r="3.2" fill="#247a91" fill-opacity=".65"/><circle cx="454.56783095" cy="348.3999999999999" r="3.2" fill="#247a91" fill-opacity=".65"/><circle cx="433.7242692" cy="359.0249999999999" r="3.2" fill="#247a91" fill-opacity=".65"/><circle cx="454.3800724999999" cy="348.61250000000007" r="3.2" fill="#247a91" fill-opacity=".65"/><circle cx="433.53572225000005" cy="359.23750000000007" r="3.2" fill="#247a91" fill-opacity=".65"/><circle cx="433.4414467" cy="359.23750000000007" r="3.2" fill="#247a91" fill-opacity=".65"/><circle cx="640.8470964499999" cy="252.9875" r="3.2" fill="#247a91" fill-opacity=".65"/><circle cx="474.7528209" cy="338.20000000000016" r="3.2" fill="#247a91" fill-opacity=".65"/><circle cx="474.65925915" cy="338.20000000000016" r="3.2" fill="#247a91" fill-opacity=".65"/><circle cx="557.5657804" cy="295.70000000000016" r="3.2" fill="#247a91" fill-opacity=".65"/><circle cx="536.72237635" cy="306.32500000000016" r="3.2" fill="#247a91" fill-opacity=".65"/><circle cx="432.8788934500001" cy="359.45000000000016" r="3.2" fill="#247a91" fill-opacity=".65"/><circle cx="432.78541054999994" cy="359.66249999999997" r="3.2" fill="#247a91" fill-opacity=".65"/><circle cx="494.941218" cy="327.78749999999997" r="3.2" fill="#247a91" fill-opacity=".65"/><circle cx="453.34686360000006" cy="349.0374999999999" r="3.2" fill="#247a91" fill-opacity=".65"/><circle cx="432.50259220000004" cy="359.66249999999997" r="3.2" fill="#247a91" fill-opacity=".65"/><circle cx="453.1582378000001" cy="349.25000000000006" r="3.2" fill="#247a91" fill-opacity=".65"/><circle cx="453.0639664" cy="349.25000000000006" r="3.2" fill="#247a91" fill-opacity=".65"/><circle cx="415.0583411" cy="368.5875" r="3.2" fill="#247a91" fill-opacity=".65"/><circle cx="460.6010221" cy="345.42499999999995" r="3.2" fill="#247a91" fill-opacity=".65"/><circle cx="443.8937031000001" cy="353.92500000000007" r="3.2" fill="#247a91" fill-opacity=".65"/><circle cx="551.68646295" cy="298.67499999999984" r="3.2" fill="#247a91" fill-opacity=".65"/><circle cx="472.72914395" cy="339.04999999999995" r="3.2" fill="#247a91" fill-opacity=".65"/><circle cx="473.25228050000004" cy="338.83749999999986" r="3.2" fill="#247a91" fill-opacity=".65"/><circle cx="493.90793025000005" cy="328.21249999999986" r="3.2" fill="#247a91" fill-opacity=".65"/><circle cx="452.3136547" cy="349.67499999999995" r="3.2" fill="#247a91" fill-opacity=".65"/><circle cx="410.71938329999995" cy="370.92499999999995" r="3.2" fill="#247a91" fill-opacity=".65"/><circle cx="535.1251077500001" cy="307.17499999999995" r="3.2" fill="#247a91" fill-opacity=".65"/><circle cx="455.48143685" cy="347.975" r="3.2" fill="#247a91" fill-opacity=".65"/><circle cx="480.27411785000004" cy="335.22500000000014" r="3.2" fill="#247a91" fill-opacity=".65"/><circle cx="442.81687769999996" cy="354.34999999999997" r="3.2" fill="#247a91" fill-opacity=".65"/><circle cx="529.85956285" cy="309.9374999999999" r="3.2" fill="#247a91" fill-opacity=".65"/><circle cx="596.1522438500001" cy="275.9375" r="3.2" fill="#247a91" fill-opacity=".65"/><circle cx="513.813343" cy="318.01250000000005" r="3.2" fill="#247a91" fill-opacity=".65"/><circle cx="492.96899275" cy="328.8499999999999" r="3.2" fill="#247a91" fill-opacity=".65"/><circle cx="472.12479604999993" cy="339.4749999999999" r="3.2" fill="#247a91" fill-opacity=".65"/><circle cx="492.78044580000005" cy="328.8499999999999" r="3.2" fill="#247a91" fill-opacity=".65"/><circle cx="492.68609139999995" cy="328.8499999999999" r="3.2" fill="#247a91" fill-opacity=".65"/><circle cx="513.34252965" cy="318.4375" r="3.2" fill="#247a91" fill-opacity=".65"/><circle cx="513.24897205" cy="318.4375" r="3.2" fill="#247a91" fill-opacity=".65"/><circle cx="471.655568" cy="339.6875" r="3.2" fill="#247a91" fill-opacity=".65"/><circle cx="492.31208510000005" cy="329.0625" r="3.2" fill="#247a91" fill-opacity=".65"/><circle cx="554.4686021999999" cy="297.1875" r="3.2" fill="#247a91" fill-opacity=".65"/><circle cx="509.63158719999996" cy="320.13749999999993" r="3.2" fill="#247a91" fill-opacity=".65"/><circle cx="484.6510730499999" cy="333.09999999999997" r="3.2" fill="#247a91" fill-opacity=".65"/><circle cx="480.42055475" cy="335.22500000000014" r="3.2" fill="#247a91" fill-opacity=".65"/><circle cx="517.6899576" cy="316.1" r="3.2" fill="#247a91" fill-opacity=".65"/><circle cx="471.9595223" cy="339.4749999999999" r="3.2" fill="#247a91" fill-opacity=".65"/><circle cx="494.8275495000001" cy="327.78749999999997" r="3.2" fill="#247a91" fill-opacity=".65"/><circle cx="561.1202346499999" cy="293.7875" r="3.2" fill="#247a91" fill-opacity=".65"/><circle cx="565.1629156500001" cy="291.875" r="3.2" fill="#247a91" fill-opacity=".65"/><circle cx="465.45567550000004" cy="342.8750000000001" r="3.2" fill="#247a91" fill-opacity=".65"/><circle cx="552.4984353499999" cy="298.24999999999994" r="3.2" fill="#247a91" fill-opacity=".65"/><circle cx="470.435551" cy="340.32500000000005" r="3.2" fill="#247a91" fill-opacity=".65"/><circle cx="449.59127959999995" cy="350.95000000000005" r="3.2" fill="#247a91" fill-opacity=".65"/><circle cx="573.9969252" cy="287.20000000000005" r="3.2" fill="#247a91" fill-opacity=".65"/><circle cx="511.6526538" cy="319.28750000000014" r="3.2" fill="#247a91" fill-opacity=".65"/><circle cx="511.5583782499999" cy="319.28750000000014" r="3.2" fill="#247a91" fill-opacity=".65"/><circle cx="469.96465880000005" cy="340.53750000000014" r="3.2" fill="#247a91" fill-opacity=".65"/><circle cx="490.62117589999997" cy="329.91250000000014" r="3.2" fill="#247a91" fill-opacity=".65"/><circle cx="428.277693" cy="361.99999999999994" r="3.2" fill="#247a91" fill-opacity=".65"/><circle cx="511.18421424999997" cy="319.49999999999994" r="3.2" fill="#247a91" fill-opacity=".65"/><circle cx="573.34073135" cy="287.62499999999994" r="3.2" fill="#247a91" fill-opacity=".65"/><circle cx="490.2466965" cy="330.12499999999994" r="3.2" fill="#247a91" fill-opacity=".65"/><circle cx="427.90234210000006" cy="361.99999999999994" r="3.2" fill="#247a91" fill-opacity=".65"/><circle cx="490.05798769999996" cy="330.33750000000003" r="3.2" fill="#247a91" fill-opacity=".65"/><circle cx="427.71371629999993" cy="362.2125000000001" r="3.2" fill="#247a91" fill-opacity=".65"/><circle cx="489.86944075" cy="330.33750000000003" r="3.2" fill="#247a91" fill-opacity=".65"/><circle cx="448.27572129999993" cy="351.58750000000003" r="3.2" fill="#247a91" fill-opacity=".65"/><circle cx="489.6822425499999" cy="330.54999999999984" r="3.2" fill="#247a91" fill-opacity=".65"/><circle cx="489.58875965" cy="330.54999999999984" r="3.2" fill="#247a91" fill-opacity=".65"/><circle cx="447.9952767500001" cy="351.79999999999984" r="3.2" fill="#247a91" fill-opacity=".65"/><circle cx="427.15179385" cy="362.42499999999984" r="3.2" fill="#247a91" fill-opacity=".65"/><circle cx="450.6367558999999" cy="350.5250000000001" r="3.2" fill="#247a91" fill-opacity=".65"/><circle cx="516.92856955" cy="316.5249999999999" r="3.2" fill="#247a91" fill-opacity=".65"/><circle cx="437.97053674999995" cy="356.90000000000003" r="3.2" fill="#247a91" fill-opacity=".65"/><circle cx="525.01234625" cy="312.27499999999986" r="3.2" fill="#247a91" fill-opacity=".65"/><circle cx="508.3043176000001" cy="320.98750000000007" r="3.2" fill="#247a91" fill-opacity=".65"/><circle cx="506.82680970000007" cy="321.6250000000001" r="3.2" fill="#247a91" fill-opacity=".65"/><circle cx="523.3470840499999" cy="313.125" r="3.2" fill="#247a91" fill-opacity=".65"/><circle cx="477.61744139999996" cy="336.7125" r="3.2" fill="#247a91" fill-opacity=".65"/><circle cx="514.8877946" cy="317.58749999999986" r="3.2" fill="#247a91" fill-opacity=".65"/><circle cx="469.15806895000003" cy="340.9625000000001" r="3.2" fill="#247a91" fill-opacity=".65"/><circle cx="467.6188215" cy="341.8124999999999" r="3.2" fill="#247a91" fill-opacity=".65"/><circle cx="446.7745501" cy="352.4374999999999" r="3.2" fill="#247a91" fill-opacity=".65"/><circle cx="529.6802745499999" cy="309.9374999999999" r="3.2" fill="#247a91" fill-opacity=".65"/><circle cx="508.83592430000004" cy="320.5624999999999" r="3.2" fill="#247a91" fill-opacity=".65"/><circle cx="467.24164874999997" cy="342.025" r="3.2" fill="#247a91" fill-opacity=".65"/><circle cx="467.14785045" cy="342.025" r="3.2" fill="#247a91" fill-opacity=".65"/><circle cx="425.55444639999996" cy="363.275" r="3.2" fill="#247a91" fill-opacity=".65"/><circle cx="466.96088465" cy="342.025" r="3.2" fill="#247a91" fill-opacity=".65"/><circle cx="591.3674059" cy="278.48750000000007" r="3.2" fill="#247a91" fill-opacity=".65"/><circle cx="487.5239230000001" cy="331.61250000000007" r="3.2" fill="#247a91" fill-opacity=".65"/><circle cx="570.4298839999999" cy="289.11250000000007" r="3.2" fill="#247a91" fill-opacity=".65"/><circle cx="445.83561259999993" cy="352.86250000000007" r="3.2" fill="#247a91" fill-opacity=".65"/><circle cx="466.49133705" cy="342.23750000000007" r="3.2" fill="#247a91" fill-opacity=".65"/><circle cx="466.3969868" cy="342.44999999999993" r="3.2" fill="#247a91" fill-opacity=".65"/><circle cx="507.80271124999996" cy="321.19999999999993" r="3.2" fill="#247a91" fill-opacity=".65"/><circle cx="445.45891295" cy="353.07499999999993" r="3.2" fill="#247a91" fill-opacity=".65"/><circle cx="445.36543005000004" cy="353.07499999999993" r="3.2" fill="#247a91" fill-opacity=".65"/><circle cx="569.7719513" cy="289.5375" r="3.2" fill="#247a91" fill-opacity=".65"/><circle cx="507.42854724999995" cy="321.4125" r="3.2" fill="#247a91" fill-opacity=".65"/><circle cx="590.3349854999999" cy="278.9125" r="3.2" fill="#247a91" fill-opacity=".65"/><circle cx="527.9911083500001" cy="310.7875" r="3.2" fill="#247a91" fill-opacity=".65"/><circle cx="465.64675395000006" cy="342.6625" r="3.2" fill="#247a91" fill-opacity=".65"/><circle cx="444.8024037" cy="353.5000000000001" r="3.2" fill="#247a91" fill-opacity=".65"/><circle cx="548.45812815" cy="300.3750000000001" r="3.2" fill="#247a91" fill-opacity=".65"/><circle cx="569.11385675" cy="289.7500000000001" r="3.2" fill="#247a91" fill-opacity=".65"/><circle cx="550.61597045" cy="299.3124999999999" r="3.2" fill="#247a91" fill-opacity=".65"/><circle cx="471.6586555999999" cy="339.6875" r="3.2" fill="#247a91" fill-opacity=".65"/><circle cx="454.95141545" cy="348.1875000000001" r="3.2" fill="#247a91" fill-opacity=".65"/><circle cx="458.99409645000003" cy="346.27500000000003" r="3.2" fill="#247a91" fill-opacity=".65"/><circle cx="732.7868563000001" cy="206.02499999999986" r="3.2" fill="#247a91" fill-opacity=".65"/><circle cx="527.0521708499999" cy="311.42500000000007" r="3.2" fill="#247a91" fill-opacity=".65"/><circle cx="526.9578206000001" cy="311.42500000000007" r="3.2" fill="#247a91" fill-opacity=".65"/><circle cx="526.86354505" cy="311.42500000000007" r="3.2" fill="#247a91" fill-opacity=".65"/><circle cx="464.51927365" cy="343.30000000000007" r="3.2" fill="#247a91" fill-opacity=".65"/><circle cx="671.92491925" cy="237.05" r="3.2" fill="#247a91" fill-opacity=".65"/><circle cx="505.8310421000001" cy="322.26250000000016" r="3.2" fill="#247a91" fill-opacity=".65"/><circle cx="567.9875592" cy="290.38750000000016" r="3.2" fill="#247a91" fill-opacity=".65"/><circle cx="526.3940763" cy="311.63750000000016" r="3.2" fill="#247a91" fill-opacity=".65"/><circle cx="484.80059339999997" cy="332.88750000000016" r="3.2" fill="#247a91" fill-opacity=".65"/><circle cx="609.2071146499999" cy="269.34999999999997" r="3.2" fill="#247a91" fill-opacity=".65"/><circle cx="551.14124425" cy="298.88749999999993" r="3.2" fill="#247a91" fill-opacity=".65"/><circle cx="517.8192176499999" cy="316.1" r="3.2" fill="#247a91" fill-opacity=".65"/><circle cx="546.7473529000001" cy="301.22499999999997" r="3.2" fill="#247a91" fill-opacity=".65"/><circle cx="492.6754051499999" cy="328.8499999999999" r="3.2" fill="#247a91" fill-opacity=".65"/><circle cx="604.6035404" cy="271.68749999999994" r="3.2" fill="#247a91" fill-opacity=".65"/><circle cx="544.3221219499999" cy="302.5" r="3.2" fill="#247a91" fill-opacity=".65"/><circle cx="540.0924792999999" cy="304.6249999999999" r="3.2" fill="#247a91" fill-opacity=".65"/><circle cx="618.86275365" cy="264.25000000000006" r="3.2" fill="#247a91" fill-opacity=".65"/><circle cx="469.38310685" cy="340.74999999999994" r="3.2" fill="#247a91" fill-opacity=".65"/><circle cx="651.9034600499999" cy="247.46249999999992" r="3.2" fill="#247a91" fill-opacity=".65"/><circle cx="589.4253387000001" cy="279.3374999999999" r="3.2" fill="#247a91" fill-opacity=".65"/><circle cx="531.2171482000001" cy="309.0875000000001" r="3.2" fill="#247a91" fill-opacity=".65"/><circle cx="597.5091153999999" cy="275.29999999999995" r="3.2" fill="#247a91" fill-opacity=".65"/><circle cx="456.30092905000004" cy="347.55000000000007" r="3.2" fill="#247a91" fill-opacity=".65"/><circle cx="709.34289625" cy="217.9249999999999" r="3.2" fill="#247a91" fill-opacity=".65"/><circle cx="545.4531671" cy="301.86249999999995" r="3.2" fill="#247a91" fill-opacity=".65"/><circle cx="524.6097672" cy="312.48749999999995" r="3.2" fill="#247a91" fill-opacity=".65"/><circle cx="607.5162054499999" cy="270.20000000000005" r="3.2" fill="#247a91" fill-opacity=".65"/><circle cx="545.1728014" cy="302.0750000000001" r="3.2" fill="#247a91" fill-opacity=".65"/><circle cx="586.5792396499999" cy="280.82500000000005" r="3.2" fill="#247a91" fill-opacity=".65"/><circle cx="565.73544135" cy="291.45000000000005" r="3.2" fill="#247a91" fill-opacity=".65"/><circle cx="586.39116995" cy="281.0374999999999" r="3.2" fill="#247a91" fill-opacity=".65"/><circle cx="586.29681555" cy="281.0374999999999" r="3.2" fill="#247a91" fill-opacity=".65"/><circle cx="544.70246115" cy="302.2874999999999" r="3.2" fill="#247a91" fill-opacity=".65"/><circle cx="544.6081897499998" cy="302.2874999999999" r="3.2" fill="#247a91" fill-opacity=".65"/><circle cx="544.5142337499999" cy="302.2874999999999" r="3.2" fill="#247a91" fill-opacity=".65"/><circle cx="544.4208297" cy="302.5" r="3.2" fill="#247a91" fill-opacity=".65"/><circle cx="523.5772679500001" cy="313.125" r="3.2" fill="#247a91" fill-opacity=".65"/><circle cx="606.4838639000001" cy="270.625" r="3.2" fill="#247a91" fill-opacity=".65"/><circle cx="523.3903062999999" cy="313.125" r="3.2" fill="#247a91" fill-opacity=".65"/><circle cx="564.7965079999999" cy="292.0875000000001" r="3.2" fill="#247a91" fill-opacity=".65"/><circle cx="543.9522324499999" cy="302.7125000000001" r="3.2" fill="#247a91" fill-opacity=".65"/><circle cx="543.85787805" cy="302.7125000000001" r="3.2" fill="#247a91" fill-opacity=".65"/><circle cx="564.5136066499999" cy="292.0875000000001" r="3.2" fill="#247a91" fill-opacity=".65"/><circle cx="605.9193311000001" cy="270.8375000000001" r="3.2" fill="#247a91" fill-opacity=".65"/><circle cx="522.8252962500001" cy="313.54999999999995" r="3.2" fill="#247a91" fill-opacity=".65"/><circle cx="522.7318133499999" cy="313.54999999999995" r="3.2" fill="#247a91" fill-opacity=".65"/><circle cx="647.1383304500001" cy="249.7999999999999" r="3.2" fill="#247a91" fill-opacity=".65"/><circle cx="522.54493055" cy="313.54999999999995" r="3.2" fill="#247a91" fill-opacity=".65"/><circle cx="563.9513688" cy="292.51250000000005" r="3.2" fill="#247a91" fill-opacity=".65"/><circle cx="586.1945471000001" cy="281.0374999999999" r="3.2" fill="#247a91" fill-opacity=".65"/><circle cx="507.23651845000006" cy="321.4125" r="3.2" fill="#247a91" fill-opacity=".65"/><circle cx="594.2784067999999" cy="276.99999999999994" r="3.2" fill="#247a91" fill-opacity=".65"/><circle cx="536.0702993" cy="306.75000000000006" r="3.2" fill="#247a91" fill-opacity=".65"/><circle cx="540.11218765" cy="304.6249999999999" r="3.2" fill="#247a91" fill-opacity=".65"/><circle cx="521.88635875" cy="313.97500000000014" r="3.2" fill="#247a91" fill-opacity=".65"/><circle cx="563.2929588499999" cy="292.72500000000014" r="3.2" fill="#247a91" fill-opacity=".65"/><circle cx="521.6993970999999" cy="313.97500000000014" r="3.2" fill="#247a91" fill-opacity=".65"/><circle cx="625.35599305" cy="261.06249999999994" r="3.2" fill="#247a91" fill-opacity=".65"/><circle cx="542.2624313" cy="303.56249999999994" r="3.2" fill="#247a91" fill-opacity=".65"/><circle cx="459.1687118500001" cy="346.06249999999994" r="3.2" fill="#247a91" fill-opacity=".65"/><circle cx="500.57436160000003" cy="324.81249999999994" r="3.2" fill="#247a91" fill-opacity=".65"/><circle cx="541.9801649000001" cy="303.77500000000003" r="3.2" fill="#247a91" fill-opacity=".65"/><circle cx="541.8858146499999" cy="303.77500000000003" r="3.2" fill="#247a91" fill-opacity=".65"/><circle cx="541.79146025" cy="303.77500000000003" r="3.2" fill="#247a91" fill-opacity=".65"/><circle cx="541.6974253999999" cy="303.77500000000003" r="3.2" fill="#247a91" fill-opacity=".65"/><circle cx="520.85402135" cy="314.4000000000001" r="3.2" fill="#247a91" fill-opacity=".65"/><circle cx="583.0104595999999" cy="282.73749999999984" r="3.2" fill="#247a91" fill-opacity=".65"/><circle cx="541.41705555" cy="303.98749999999984" r="3.2" fill="#247a91" fill-opacity=".65"/><circle cx="520.5734938" cy="314.61249999999984" r="3.2" fill="#247a91" fill-opacity=".65"/><circle cx="520.4797743500001" cy="314.61249999999984" r="3.2" fill="#247a91" fill-opacity=".65"/><circle cx="541.13550295" cy="304.19999999999993" r="3.2" fill="#247a91" fill-opacity=".65"/><circle cx="520.2912273999999" cy="314.82499999999993" r="3.2" fill="#247a91" fill-opacity=".65"/><circle cx="540.9468771500001" cy="304.19999999999993" r="3.2" fill="#247a91" fill-opacity=".65"/><circle cx="540.8525227499999" cy="304.19999999999993" r="3.2" fill="#247a91" fill-opacity=".65"/><circle cx="540.7584879000001" cy="304.19999999999993" r="3.2" fill="#247a91" fill-opacity=".65"/><circle cx="561.41508385" cy="293.7875" r="3.2" fill="#247a91" fill-opacity=".65"/><circle cx="665.0715220999998" cy="240.66250000000008" r="3.2" fill="#247a91" fill-opacity=".65"/><circle cx="540.4781222" cy="304.4125000000001" r="3.2" fill="#247a91" fill-opacity=".65"/><circle cx="581.88456045" cy="283.1625" r="3.2" fill="#247a91" fill-opacity=".65"/><circle cx="542.6368359999999" cy="303.35000000000014" r="3.2" fill="#247a91" fill-opacity=".65"/><circle cx="592.3149671" cy="277.8500000000001" r="3.2" fill="#247a91" fill-opacity=".65"/><circle cx="579.7431023499998" cy="284.4375000000001" r="3.2" fill="#247a91" fill-opacity=".65"/><circle cx="629.4212334500002" cy="258.93750000000006" r="3.2" fill="#247a91" fill-opacity=".65"/><circle cx="616.84920685" cy="265.3125" r="3.2" fill="#247a91" fill-opacity=".65"/><circle cx="559.46565455" cy="294.63749999999993" r="3.2" fill="#247a91" fill-opacity=".65"/><circle cx="596.7359330500001" cy="275.7249999999999" r="3.2" fill="#247a91" fill-opacity=".65"/><circle cx="654.7562074" cy="245.97500000000008" r="3.2" fill="#247a91" fill-opacity=".65"/><circle cx="526.0265605999999" cy="311.84999999999997" r="3.2" fill="#247a91" fill-opacity=".65"/><circle cx="584.0469138000001" cy="282.10000000000014" r="3.2" fill="#247a91" fill-opacity=".65"/><circle cx="539.3520612" cy="305.05000000000007" r="3.2" fill="#247a91" fill-opacity=".65"/><circle cx="601.50771095" cy="273.1750000000001" r="3.2" fill="#247a91" fill-opacity=".65"/><circle cx="622.16335655" cy="262.55000000000007" r="3.2" fill="#247a91" fill-opacity=".65"/><circle cx="580.56908515" cy="284.01249999999993" r="3.2" fill="#247a91" fill-opacity=".65"/><circle cx="621.9748095999998" cy="262.76249999999993" r="3.2" fill="#247a91" fill-opacity=".65"/><circle cx="539.8466208500001" cy="304.8375" r="3.2" fill="#247a91" fill-opacity=".65"/><circle cx="606.1393848499999" cy="270.8375000000001" r="3.2" fill="#247a91" fill-opacity=".65"/><circle cx="568.6821447" cy="289.9624999999999" r="3.2" fill="#247a91" fill-opacity=".65"/><circle cx="593.47490455" cy="277.21250000000003" r="3.2" fill="#247a91" fill-opacity=".65"/><circle cx="556.0175067" cy="296.54999999999995" r="3.2" fill="#247a91" fill-opacity=".65"/><circle cx="538.41312785" cy="305.475" r="3.2" fill="#247a91" fill-opacity=".65"/><circle cx="579.81877345" cy="284.225" r="3.2" fill="#247a91" fill-opacity=".65"/><circle cx="600.4744979" cy="273.8125000000001" r="3.2" fill="#247a91" fill-opacity=".65"/><circle cx="600.3802264999999" cy="273.8125000000001" r="3.2" fill="#247a91" fill-opacity=".65"/><circle cx="600.2858721" cy="273.8125000000001" r="3.2" fill="#247a91" fill-opacity=".65"/><circle cx="579.4416795500001" cy="284.4375000000001" r="3.2" fill="#247a91" fill-opacity=".65"/><circle cx="620.8482754999999" cy="263.1875000000001" r="3.2" fill="#247a91" fill-opacity=".65"/><circle cx="579.2547137500001" cy="284.65" r="3.2" fill="#247a91" fill-opacity=".65"/><circle cx="558.41131385" cy="295.275" r="3.2" fill="#247a91" fill-opacity=".65"/><circle cx="620.5679098" cy="263.3999999999999" r="3.2" fill="#247a91" fill-opacity=".65"/><circle cx="599.72419035" cy="274.0249999999999" r="3.2" fill="#247a91" fill-opacity=".65"/><circle cx="537.3798359499999" cy="306.11250000000007" r="3.2" fill="#247a91" fill-opacity=".65"/><circle cx="744.7854857" cy="199.8625" r="3.2" fill="#247a91" fill-opacity=".65"/><circle cx="640.9412889999999" cy="252.9875" r="3.2" fill="#247a91" fill-opacity=".65"/><circle cx="578.5969387499999" cy="284.86250000000007" r="3.2" fill="#247a91" fill-opacity=".65"/><circle cx="557.7528209" cy="295.70000000000016" r="3.2" fill="#247a91" fill-opacity=".65"/><circle cx="578.4093379999999" cy="285.07500000000016" r="3.2" fill="#247a91" fill-opacity=".65"/><circle cx="578.3158592500001" cy="285.07500000000016" r="3.2" fill="#247a91" fill-opacity=".65"/><circle cx="578.2223763499999" cy="285.07500000000016" r="3.2" fill="#247a91" fill-opacity=".65"/><circle cx="557.3788934500001" cy="295.70000000000016" r="3.2" fill="#247a91" fill-opacity=".65"/><circle cx="598.78525285" cy="274.66249999999997" r="3.2" fill="#247a91" fill-opacity=".65"/><circle cx="598.69098145" cy="274.66249999999997" r="3.2" fill="#247a91" fill-opacity=".65"/><circle cx="577.8467059" cy="285.28749999999997" r="3.2" fill="#247a91" fill-opacity=".65"/><circle cx="577.75235565" cy="285.28749999999997" r="3.2" fill="#247a91" fill-opacity=".65"/><circle cx="577.6580801" cy="285.5000000000001" r="3.2" fill="#247a91" fill-opacity=".65"/><circle cx="619.6158333999999" cy="263.82500000000016" r="3.2" fill="#247a91" fill-opacity=".65"/><circle cx="582.1585932500001" cy="283.1625" r="3.2" fill="#247a91" fill-opacity=".65"/><circle cx="586.2013531" cy="281.0374999999999" r="3.2" fill="#247a91" fill-opacity=".65"/><circle cx="610.9939593999998" cy="268.2875" r="3.2" fill="#247a91" fill-opacity=".65"/><circle cx="573.53671925" cy="287.41250000000014" r="3.2" fill="#247a91" fill-opacity=".65"/><circle cx="577.0963983500001" cy="285.71249999999986" r="3.2" fill="#247a91" fill-opacity=".65"/><circle cx="577.0021228" cy="285.71249999999986" r="3.2" fill="#247a91" fill-opacity=".65"/><circle cx="576.9077684000001" cy="285.71249999999986" r="3.2" fill="#247a91" fill-opacity=".65"/><circle cx="618.3134181500002" cy="264.67499999999995" r="3.2" fill="#247a91" fill-opacity=".65"/><circle cx="618.2192214500001" cy="264.67499999999995" r="3.2" fill="#247a91" fill-opacity=".65"/><circle cx="618.539008" cy="264.46249999999986" r="3.2" fill="#247a91" fill-opacity=".65"/><circle cx="622.5816101499998" cy="262.3375" r="3.2" fill="#247a91" fill-opacity=".65"/><circle cx="688.87437415" cy="228.54999999999995" r="3.2" fill="#247a91" fill-opacity=".65"/><circle cx="568.4170551500001" cy="290.17500000000007" r="3.2" fill="#247a91" fill-opacity=".65"/><circle cx="634.70973615" cy="256.17499999999984" r="3.2" fill="#247a91" fill-opacity=".65"/><circle cx="617.6575396999999" cy="264.88750000000005" r="3.2" fill="#247a91" fill-opacity=".65"/><circle cx="576.0631853" cy="286.1375000000001" r="3.2" fill="#247a91" fill-opacity=".65"/><circle cx="700.46883505" cy="222.5999999999999" r="3.2" fill="#247a91" fill-opacity=".65"/><circle cx="596.6245594999999" cy="275.7249999999999" r="3.2" fill="#247a91" fill-opacity=".65"/><circle cx="596.5302881" cy="275.7249999999999" r="3.2" fill="#247a91" fill-opacity=".65"/><circle cx="658.9620249000001" cy="243.8499999999999" r="3.2" fill="#247a91" fill-opacity=".65"/><circle cx="642.2547888999999" cy="252.35000000000002" r="3.2" fill="#247a91" fill-opacity=".65"/><circle cx="625.5475487499999" cy="260.85000000000014" r="3.2" fill="#247a91" fill-opacity=".65"/><circle cx="671.0901508999999" cy="237.47499999999997" r="3.2" fill="#247a91" fill-opacity=".65"/><circle cx="654.38291075" cy="246.1874999999999" r="3.2" fill="#247a91" fill-opacity=".65"/><circle cx="637.4686022" cy="254.6875" r="3.2" fill="#247a91" fill-opacity=".65"/><circle cx="658.1242519499999" cy="244.2750000000001" r="3.2" fill="#247a91" fill-opacity=".65"/><circle cx="678.7800552499999" cy="233.65000000000015" r="3.2" fill="#247a91" fill-opacity=".65"/><circle cx="637.1857050000002" cy="254.9000000000001" r="3.2" fill="#247a91" fill-opacity=".65"/><circle cx="657.8413506" cy="244.2750000000001" r="3.2" fill="#247a91" fill-opacity=".65"/><circle cx="616.2469962" cy="265.7374999999999" r="3.2" fill="#247a91" fill-opacity=".65"/><circle cx="636.9035963000001" cy="255.11249999999995" r="3.2" fill="#247a91" fill-opacity=".65"/><circle cx="678.3101922499999" cy="233.8624999999999" r="3.2" fill="#247a91" fill-opacity=".65"/><circle cx="615.9666305" cy="265.7374999999999" r="3.2" fill="#247a91" fill-opacity=".65"/><circle cx="636.6232264500001" cy="255.11249999999995" r="3.2" fill="#247a91" fill-opacity=".65"/><circle cx="615.7796688500001" cy="265.95000000000005" r="3.2" fill="#247a91" fill-opacity=".65"/><circle cx="615.6862647999999" cy="265.95000000000005" r="3.2" fill="#247a91" fill-opacity=".65"/><circle cx="657.09270305" cy="244.70000000000005" r="3.2" fill="#247a91" fill-opacity=".65"/><circle cx="636.2492990000001" cy="255.325" r="3.2" fill="#247a91" fill-opacity=".65"/><circle cx="470.1557372500001" cy="340.53750000000014" r="3.2" fill="#247a91" fill-opacity=".65"/><path d="M351.0982755 401.4069596571659L744.7854857 199.83823465268125" stroke="#dc803d" stroke-width="2"/><text x="145" y="122" font-size="20">y = 0.9999x -100.46</text><text x="145" y="153" font-size="20">R² = 1.000 · 300 measured pairs</text><text x="525" y="586" text-anchor="middle" font-size="20">Raw :SPEC:TRAC? value</text><text transform="translate(32 305) rotate(-90)" text-anchor="middle" font-size="20">HSA2307 CSV amplitude (dBm)</text></g></svg>